{"title":"Naruto Shippuuden - 334 [720p] [ENG-SUBBED] [GWC].mkv","uid":9029414,"size":97184403,"categoryP":"video","categoryS":"tv_shows","magnet":"?xt=urn:btih:9d965ebea03e4d6453cae36d1c19e06ab86d96e1&amp;dn=Naruto+Shippuuden+-+334+%5B720p%5D+%5BENG-SUBBED%5D+%5BGWC%5D.mkv&amp;tr=udp%3A%2F%2Ftracker.openbittorrent.com%3A80&amp;tr=udp%3A%2F%2Fopen.demonii.com%3A1337&amp;tr=udp%3A%2F%2Ftracker.coppersurfer.tk%3A6969&amp;tr=udp%3A%2F%2Fexodus.desync.com%3A6969","seeders":0,"leechers":1,"uploader":"canc232","files":1,"time":1381431522,"description":"Naruto Shippuuden - 334 [720p] [ENG-SUBBED] [GWC]\n\n\nTHUMBNAIL IMAGE : &lt;a href=&quot;\nhttp://img199.imageshack.us/img199/1286/xew5.jpg&quot; rel=&quot;nofollow&quot; target=&quot;_NEW&quot;&gt;\nhttp://img199.imageshack.us/img199/1286/xew5.jpg&lt;/a&gt;\n\n\nMEDIA INFO :\n\nGeneral \nFormat : Matroska \nFile size : 92.7 MiB \nDuration : 23mn 9s \nOverall bit rate mode : Variable \nOverall bit rate : 559 Kbps \nWriting application : mkvmerge v6.4.1 ('Omega Point')\n\nVideo \nID : 1 \nFormat : AVC \nFormat profile : &lt;a class=&quot;__cf_email__&quot; href=&quot;/cdn-cgi/l/email-protection&quot; data-cfemail=&quot;fcb4959b94bcb0c8d2cd&quot;&gt;[email&amp;#160;protected]&lt;/a&gt;&lt;script cf-hash='f9e31' type=&quot;text/javascript&quot;&gt;\n/* &lt;![CDATA[ */!function(){try{var t=&quot;currentScript&quot;in document?document.currentScript:function(){for(var t=document.getElementsByTagName(&quot;script&quot;),e=t.length;e--;)if(t[e].getAttribute(&quot;cf-hash&quot;))return t[e]}();if(t&amp;&amp;t.previousSibling){var e,r,n,i,c=t.previousSibling,a=c.getAttribute(&quot;data-cfemail&quot;);if(a){for(e=&quot;&quot;,r=parseInt(a.substr(0,2),16),n=2;a.length-n;n+=2)i=parseInt(a.substr(n,2),16)^r,e+=String.fromCharCode(i);e=document.createTextNode(e),c.parentNode.replaceChild(e,c)}}}catch(u){}}();/* ]]&gt; */&lt;/script&gt; \nFormat settings, CABAC : Yes \nFormat settings, ReFrames : 11 frames \nDuration : 23mn 9s \nBit rate : 510 Kbps \nWidth : 1 280 pixels \nHeight : 720 pixels \nDisplay aspect ratio : 16:9 \nFrame rate mode : Constant \nFrame rate : 23.976 fps \nStream size : 81.6 MiB (88%) \nTitle : Naruto Shippuuden - 334 [720p] [ENG-SUBBED] [GWC] \nWriting library : x264 core\n\nAudio \nID : 2 \nFormat : Vorbis \nDuration : 23mn 9s \nBit rate mode : Variable \nChannel(s) : 2 channels \nSampling rate : 44.1 KHz \nStream size : 9.28 MiB (10%) \n\nText \nID : 3 \nFormat : UTF-8 \nLanguage : English \nDefault : Yes \nForced : No \n\n","torrent":{"xt":"urn:btih:9d965ebea03e4d6453cae36d1c19e06ab86d96e1","amp;dn":"Naruto+Shippuuden+-+334+%5B720p%5D+%5BENG-SUBBED%5D+%5BGWC%5D.mkv","amp;tr":["udp%3A%2F%2Ftracker.openbittorrent.com%3A80","udp%3A%2F%2Fopen.demonii.com%3A1337","udp%3A%2F%2Ftracker.coppersurfer.tk%3A6969","udp%3A%2F%2Fexodus.desync.com%3A6969"],"infoHash":"9d965ebea03e4d6453cae36d1c19e06ab86d96e1","infoHashBuffer":{"type":"Buffer","data":[157,150,94,190,160,62,77,100,83,202,227,109,28,25,224,106,184,109,150,225]},"announce":[],"urlList":[]}}